<svg xmlns="http://www.w3.org/2000/svg" xmlns:xlink="http://www.w3.org/1999/xlink" width="500" zoomAndPan="magnify" viewBox="0 0 375 374.999991" height="500" preserveAspectRatio="xMidYMid meet" version="1.0"><defs><g/></defs><g fill="#002557" fill-opacity="1"><g transform="translate(16.385796, 222.846182)"><g><path d="M 40.5 -58.90625 L 40.5 -43.5625 L 1.6875 -43.5625 L 1.6875 -58.90625 Z M 9.203125 -73.015625 L 30.375 -73.015625 L 30.375 -18.953125 C 30.375 -18.128906 30.515625 -17.441406 30.796875 -16.890625 C 31.078125 -16.335938 31.507812 -15.925781 32.09375 -15.65625 C 32.6875 -15.394531 33.441406 -15.265625 34.359375 -15.265625 C 35.003906 -15.265625 35.753906 -15.335938 36.609375 -15.484375 C 37.460938 -15.640625 38.09375 -15.769531 38.5 -15.875 L 41.578125 -1 C 40.628906 -0.71875 39.28125 -0.375 37.53125 0.03125 C 35.78125 0.445312 33.703125 0.71875 31.296875 0.84375 C 26.441406 1.101562 22.363281 0.601562 19.0625 -0.65625 C 15.757812 -1.925781 13.273438 -3.929688 11.609375 -6.671875 C 9.953125 -9.410156 9.148438 -12.835938 9.203125 -16.953125 Z M 9.203125 -73.015625 "/></g></g></g><g fill="#002557" fill-opacity="1"><g transform="translate(55.139293, 222.846182)"><g><path d="M 43.5625 -25.765625 L 43.5625 -58.90625 L 64.734375 -58.90625 L 64.734375 0 L 44.640625 0 L 44.640625 -11.203125 L 44.03125 -11.203125 C 42.75 -7.441406 40.507812 -4.503906 37.3125 -2.390625 C 34.113281 -0.285156 30.316406 0.765625 25.921875 0.765625 C 21.804688 0.765625 18.207031 -0.175781 15.125 -2.0625 C 12.050781 -3.957031 9.660156 -6.566406 7.953125 -9.890625 C 6.253906 -13.210938 5.394531 -17.023438 5.375 -21.328125 L 5.375 -58.90625 L 26.546875 -58.90625 L 26.546875 -25.765625 C 26.566406 -22.859375 27.3125 -20.570312 28.78125 -18.90625 C 30.25 -17.25 32.316406 -16.421875 34.984375 -16.421875 C 36.742188 -16.421875 38.269531 -16.796875 39.5625 -17.546875 C 40.851562 -18.296875 41.847656 -19.367188 42.546875 -20.765625 C 43.253906 -22.160156 43.59375 -23.828125 43.5625 -25.765625 Z M 43.5625 -25.765625 "/></g></g></g><g fill="#002557" fill-opacity="1"><g transform="translate(120.2791, 222.846182)"><g><path d="M 5.375 0 L 5.375 -58.90625 L 25.921875 -58.90625 L 25.921875 -47.703125 L 26.546875 -47.703125 C 27.617188 -51.847656 29.320312 -54.878906 31.65625 -56.796875 C 34 -58.710938 36.742188 -59.671875 39.890625 -59.671875 C 40.804688 -59.671875 41.71875 -59.597656 42.625 -59.453125 C 43.53125 -59.316406 44.40625 -59.125 45.25 -58.875 L 45.25 -40.8125 C 44.207031 -41.164062 42.914062 -41.429688 41.375 -41.609375 C 39.84375 -41.785156 38.53125 -41.875 37.4375 -41.875 C 35.363281 -41.875 33.5 -41.40625 31.84375 -40.46875 C 30.195312 -39.539062 28.898438 -38.238281 27.953125 -36.5625 C 27.015625 -34.894531 26.546875 -32.9375 26.546875 -30.6875 L 26.546875 0 Z M 5.375 0 "/></g></g></g><g fill="#002557" fill-opacity="1"><g transform="translate(162.100775, 222.846182)"><g><path d="M 43.5625 -25.765625 L 43.5625 -58.90625 L 64.734375 -58.90625 L 64.734375 0 L 44.640625 0 L 44.640625 -11.203125 L 44.03125 -11.203125 C 42.75 -7.441406 40.507812 -4.503906 37.3125 -2.390625 C 34.113281 -0.285156 30.316406 0.765625 25.921875 0.765625 C 21.804688 0.765625 18.207031 -0.175781 15.125 -2.0625 C 12.050781 -3.957031 9.660156 -6.566406 7.953125 -9.890625 C 6.253906 -13.210938 5.394531 -17.023438 5.375 -21.328125 L 5.375 -58.90625 L 26.546875 -58.90625 L 26.546875 -25.765625 C 26.566406 -22.859375 27.3125 -20.570312 28.78125 -18.90625 C 30.25 -17.25 32.316406 -16.421875 34.984375 -16.421875 C 36.742188 -16.421875 38.269531 -16.796875 39.5625 -17.546875 C 40.851562 -18.296875 41.847656 -19.367188 42.546875 -20.765625 C 43.253906 -22.160156 43.59375 -23.828125 43.5625 -25.765625 Z M 43.5625 -25.765625 "/></g></g></g><g fill="#002557" fill-opacity="1"><g transform="translate(227.240587, 222.846182)"><g><path d="M 40.5 -58.90625 L 40.5 -43.5625 L 1.6875 -43.5625 L 1.6875 -58.90625 Z M 9.203125 -73.015625 L 30.375 -73.015625 L 30.375 -18.953125 C 30.375 -18.128906 30.515625 -17.441406 30.796875 -16.890625 C 31.078125 -16.335938 31.507812 -15.925781 32.09375 -15.65625 C 32.6875 -15.394531 33.441406 -15.265625 34.359375 -15.265625 C 35.003906 -15.265625 35.753906 -15.335938 36.609375 -15.484375 C 37.460938 -15.640625 38.09375 -15.769531 38.5 -15.875 L 41.578125 -1 C 40.628906 -0.71875 39.28125 -0.375 37.53125 0.03125 C 35.78125 0.445312 33.703125 0.71875 31.296875 0.84375 C 26.441406 1.101562 22.363281 0.601562 19.0625 -0.65625 C 15.757812 -1.925781 13.273438 -3.929688 11.609375 -6.671875 C 9.953125 -9.410156 9.148438 -12.835938 9.203125 -16.953125 Z M 9.203125 -73.015625 "/></g></g></g><g fill="#002557" fill-opacity="1"><g transform="translate(265.994079, 222.846182)"><g><path d="M 21.78125 0.921875 C 18.019531 0.921875 14.703125 0.300781 11.828125 -0.9375 C 8.953125 -2.175781 6.695312 -4.0625 5.0625 -6.59375 C 3.425781 -9.125 2.609375 -12.347656 2.609375 -16.265625 C 2.609375 -19.484375 3.15625 -22.234375 4.25 -24.515625 C 5.351562 -26.804688 6.890625 -28.679688 8.859375 -30.140625 C 10.828125 -31.597656 13.117188 -32.707031 15.734375 -33.46875 C 18.359375 -34.238281 21.191406 -34.742188 24.234375 -34.984375 C 27.535156 -35.234375 30.1875 -35.539062 32.1875 -35.90625 C 34.195312 -36.28125 35.648438 -36.804688 36.546875 -37.484375 C 37.441406 -38.160156 37.890625 -39.0625 37.890625 -40.1875 L 37.890625 -40.34375 C 37.890625 -41.875 37.300781 -43.050781 36.125 -43.875 C 34.945312 -44.695312 33.441406 -45.109375 31.609375 -45.109375 C 29.585938 -45.109375 27.941406 -44.664062 26.671875 -43.78125 C 25.410156 -42.894531 24.648438 -41.546875 24.390625 -39.734375 L 4.90625 -39.734375 C 5.164062 -43.316406 6.3125 -46.617188 8.34375 -49.640625 C 10.375 -52.671875 13.34375 -55.097656 17.25 -56.921875 C 21.164062 -58.753906 26.050781 -59.671875 31.90625 -59.671875 C 36.125 -59.671875 39.90625 -59.175781 43.25 -58.1875 C 46.601562 -57.207031 49.457031 -55.84375 51.8125 -54.09375 C 54.164062 -52.34375 55.960938 -50.296875 57.203125 -47.953125 C 58.441406 -45.617188 59.0625 -43.082031 59.0625 -40.34375 L 59.0625 0 L 39.265625 0 L 39.265625 -8.28125 L 38.8125 -8.28125 C 37.632812 -6.082031 36.207031 -4.304688 34.53125 -2.953125 C 32.863281 -1.597656 30.960938 -0.613281 28.828125 0 C 26.691406 0.613281 24.34375 0.921875 21.78125 0.921875 Z M 28.6875 -12.421875 C 30.300781 -12.421875 31.816406 -12.753906 33.234375 -13.421875 C 34.648438 -14.085938 35.804688 -15.046875 36.703125 -16.296875 C 37.597656 -17.546875 38.046875 -19.066406 38.046875 -20.859375 L 38.046875 -25.765625 C 37.484375 -25.535156 36.890625 -25.316406 36.265625 -25.109375 C 35.640625 -24.910156 34.972656 -24.722656 34.265625 -24.546875 C 33.566406 -24.367188 32.828125 -24.203125 32.046875 -24.046875 C 31.265625 -23.890625 30.453125 -23.75 29.609375 -23.625 C 27.972656 -23.363281 26.632812 -22.945312 25.59375 -22.375 C 24.5625 -21.800781 23.796875 -21.097656 23.296875 -20.265625 C 22.796875 -19.429688 22.546875 -18.503906 22.546875 -17.484375 C 22.546875 -15.847656 23.117188 -14.59375 24.265625 -13.71875 C 25.421875 -12.851562 26.894531 -12.421875 28.6875 -12.421875 Z M 28.6875 -12.421875 "/></g></g></g><g fill="#002557" fill-opacity="1"><g transform="translate(324.844127, 222.846182)"><g><path d="M 16.875 1.234375 C 13.90625 1.234375 11.363281 0.191406 9.25 -1.890625 C 7.144531 -3.984375 6.109375 -6.523438 6.140625 -9.515625 C 6.109375 -12.429688 7.144531 -14.921875 9.25 -16.984375 C 11.363281 -19.054688 13.90625 -20.09375 16.875 -20.09375 C 19.6875 -20.09375 22.171875 -19.054688 24.328125 -16.984375 C 26.492188 -14.921875 27.585938 -12.429688 27.609375 -9.515625 C 27.585938 -7.515625 27.070312 -5.703125 26.0625 -4.078125 C 25.050781 -2.460938 23.738281 -1.171875 22.125 -0.203125 C 20.519531 0.753906 18.769531 1.234375 16.875 1.234375 Z M 16.875 1.234375 "/></g></g></g></svg>